# xmcd CD database file
#
# Track frame offsets:
#	150
#	55167
#	91280
#	110700
#	129307
#	156390
#	176867
#	204752
#
# Disc length: 3150 seconds
#
# Revision: 2
# Processed by: cddbd v1.5.2PL0 Copyright (c) Steve Scherf et al.
# Submitted via: CDex 1.70beta2
#
DISCID=690c4c08
DTITLE=中田 悟 - 楽園の島, タヒチ
DYEAR=1900
DGENRE=New Age
TTITLE0=タハア島ティバ
TTITLE1=ライアテア島 プオヒネ
TTITLE2=ライアテア島 フェツナ
TTITLE3=ライアテア島 アベラ
TTITLE4=タヒチ島 タウティラ
TTITLE5=ファヒネ島 ハッアブ
TTITLE6=ファヒネ島 パレア
TTITLE7=ボラボラ島 マティラ
EXTD=
EXTT0=
EXTT1=
EXTT2=
EXTT3=
EXTT4=
EXTT5=
EXTT6=
EXTT7=
PLAYORDER=
